:SAMPLES-PER-SECOND 30
:FULLY-SPECIFIED
:DEGREES
291
root  35.11806698 36.50093679 -14.91715889 9.448231697 1.091249943 3.478519201
lowerback  -7.66340065 0.3877450526 1.382470489
upperback  -3.771019936 0.1154360026 -2.73774004
thorax  0.4100440145 -0.1270820051 -3.596889973
lowerneck  -16.50379944 0.3172050118 0.2689050138
upperneck  14.3409996 -0.9171780348 6.003419876
head  7.147809982 0.04697259516 1.806169987
lclavicle  0 -4.497500157e-015 -2.743230041e-014
lhumerus  -42.94419861 22.78120041 73.20529938
lradius  -0.09834816307 -6.507048965e-006 29.30730057
lwrist  4.824992743e-007 -3.790274832e-007 -26.48660088
lhand  -4.390971405e-031 -36.46900177 -10.60270023
lfingers  90 7.125020027 -90
lthumb  94.59940586 -25.45479592 100.6016721
rclavicle  0 -4.497500157e-015 -2.743230041e-014
rhumerus  -48.36560059 -26.02350044 -64.84249878
rradius  -5.16745672e-007 2.214343908e-008 54.27920151
rwrist  1.380293725e-006 2.528095422e-007 -160.8079987
rhand  -1.769504725e-031 3.825269938 -5.097290039
rfingers  -90 -7.125020027 -90
rthumb  -83.97874277 -10.60948621 -60.19151198
rfemur  -12.99695015 14.42688656 13.17263985
rtibia  -1.333835959 0.4348651767 21.86052132
rfoot  -0.9794077277 -19.29575157 -39.67896271
rtoes  3.874443094 19.63622256 -101.3944414
lfemur  -10.66159534 -18.54142761 -19.06062126
ltibia  1.606665969 0.5131359696 16.42066574
lfoot  0.8279685974 -27.44992256 34.93193054
ltoes  -8.554536812 -18.14626147 -115.7800797
292
root  35.11903117 36.50061239 -14.91290716 9.462311745 1.009864926 3.513095617
lowerback  -7.650080204 0.4064990878 1.428110123
upperback  -3.7667799 0.138658002 -2.734200001
thorax  0.4088560045 -0.1154080033 -3.617189884
lowerneck  -16.49469948 0.3361980021 0.3227829933
upperneck  14.35280037 -0.9019001126 5.980879784
head  7.149449825 0.05491641164 1.79163003
lclavicle  0 -4.497500157e-015 -2.743230041e-014
lhumerus  -42.91350174 22.66769981 73.27719879
lradius  -0.09791433066 -6.507048965e-006 29.30209923
lwrist  4.824992743e-007 -3.790274832e-007 -26.43239975
lhand  -0 -36.45040131 -10.60550022
lfingers  90 7.125020027 -90
lthumb  94.59130475 -25.45819728 100.5820529
rclavicle  0 -4.497500157e-015 -2.743230041e-014
rhumerus  -48.3667984 -26.97880173 -64.20970154
rradius  -5.16745672e-007 2.214343908e-008 52.15530014
rwrist  1.380293725e-006 2.528095422e-007 -159.7870026
rhand  -1.769468466e-031 3.807670116 -4.695040226
rfingers  -90 -7.125020027 -90
rthumb  -83.7797473 -10.95780014 -60.17068882
rfemur  -13.04610825 14.42433262 13.12548065
rtibia  -1.34361124 0.405611217 21.91872597
rfoot  -0.9854359627 -19.34809875 -39.58799744
rtoes  3.869032132 19.63724889 -101.37834
lfemur  -10.55841446 -18.46949577 -19.15468407
ltibia  1.68829608 0.5269365907 16.24927521
lfoot  0.8169426918 -27.39544106 34.95731735
ltoes  -8.575013574 -18.13684925 -115.8458441
293
root  35.11938561 36.49993957 -14.91093673 9.461086273 0.9021177292 3.483820677
lowerback  -7.684350014 0.4286899865 1.406880379
upperback  -3.75131011 0.1700830013 -2.742880106
thorax  0.446036011 -0.09877940267 -3.611860037
lowerneck  -16.50620079 0.3725540042 0.3863129914
upperneck  14.38619995 -0.8626229763 5.937779903
head  7.160709858 0.07409396023 1.771780014
lclavicle  0 -4.497500157e-015 -2.743230041e-014
lhumerus  -42.86449814 22.54339981 73.37760162
lradius  -0.09747777879 -6.507048965e-006 29.31539917
lwrist  4.824992743e-007 -3.790274832e-007 -26.35289955
lhand  -4.385901518e-031 -36.37929916 -10.68710041
lfingers  90 7.125020027 -90
lthumb  94.57459891 -25.540752 100.5131587
rclavicle  0 -4.497500157e-015 -2.743230041e-014
rhumerus  -48.35889816 -28.03739929 -63.46289825
rradius  -5.16745672e-007 2.214343908e-008 50.0469017
rwrist  1.380293725e-006 2.528095422e-007 -158.3789978
rhand  -1.770005545e-031 4.060510159 -5.005809784
rfingers  -90 -7.125020027 -90
rthumb  -83.87027243 -10.69916081 -59.9519694
rfemur  -13.05392551 14.40992737 13.12970924
rtibia  -1.313073874 0.381675154 21.89807129
rfoot  -0.9543934464 -19.44036102 -39.46121979
rtoes  3.863158045 19.63836137 -101.3608614
lfemur  -10.52490902 -18.44466209 -19.12497902
ltibia  1.67368865 0.5237667561 16.20766449
lfoot  0.8139563799 -27.35111046 35.06546783
ltoes  -8.568016355 -18.14006871 -115.8233677
294
root  35.1196259 36.50071452 -14.91438648 9.514561653 0.7418752909 3.403665304
lowerback  -7.711069584 0.4695549607 1.35874939
upperback  -3.708420038 0.2307669967 -2.773819923
thorax  0.5094379783 -0.06595350057 -3.612080097
lowerneck  -16.52440071 0.4046660066 0.4187830091
upperneck  14.42210007 -0.8300989866 5.935120106
head  7.168607235 0.09164999425 1.761721253
lclavicle  0 -4.497500157e-015 -2.743230041e-014
lhumerus  -42.81729889 22.41419983 73.48259735
lradius  -0.09703850001 -6.507048965e-006 29.33749962
lwrist  4.824992743e-007 -3.790274832e-007 -26.24990082
lhand  -0 -36.34569931 -10.66759968
lfingers  90 7.125020027 -90
lthumb  94.55495844 -25.52278053 100.4755595
rclavicle  0 -4.497500157e-015 -2.743230041e-014
rhumerus  -48.43579865 -29.10549927 -62.66059875
rradius  -5.16745672e-007 2.214343908e-008 48.08750153
rwrist  1.380293725e-006 2.528095422e-007 -156.529007
rhand  -0 3.965660095 -4.691810131
rfingers  -90 -7.125020027 -90
rthumb  -83.73572903 -10.96697402 -60.01514695
rfemur  -13.12697411 14.39435196 13.16586781
rtibia  -1.277053714 0.3587408364 21.82736397
rfoot  -0.8868913651 -19.50798798 -39.29397202
rtoes  3.873909414 19.63632385 -101.3928533
lfemur  -10.71216297 -18.38716698 -18.94285583
ltibia  1.536324739 0.5366484523 16.40879822
lfoot  0.8578414321 -27.44232941 35.20178604
ltoes  -8.568534786 -18.13983029 -115.8250329
295
root  35.12463307 36.50024594 -14.91514041 9.68481636 0.6094527245 3.313893318
lowerback  -7.603889465 0.4904160202 1.244079828
upperback  -3.634740114 0.2756589949 -2.792929888
thorax  0.5291410089 -0.03785130009 -3.563169956
lowerneck  -16.56609917 0.4327749908 0.4794949889
upperneck  14.47970009 -0.8055459857 5.900380135
head  7.192264557 0.1051130444 1.74212718
lclavicle  0 -4.497500157e-015 -2.743230041e-014
lhumerus  -42.74900055 22.22850037 73.61969757
lradius  -0.0965680927 -6.507048965e-006 29.36949921
lwrist  4.824992743e-007 -3.790274832e-007 -26.12079811
lhand  -0 -36.36439896 -10.68900013
lfingers  90 7.125020027 -90
lthumb  94.56799749 -25.54317948 100.497352
rclavicle  0 -4.497500157e-015 -2.743230041e-014
rhumerus  -48.59339905 -30.31559753 -61.71559906
rradius  -5.16745672e-007 2.214343908e-008 46.11999893
rwrist  1.380293725e-006 2.528095422e-007 -155.345993
rhand  -1.770405193e-031 4.238800049 -4.954619884
rfingers  -90 -7.125020027 -90
rthumb  -83.79667712 -10.75118695 -59.77201385
rfemur  -13.31943512 14.43266964 13.16685772
rtibia  -1.239367127 0.3373395801 21.74836922
rfoot  -0.8350985646 -19.53222466 -39.20581055
rtoes  3.868747281 19.63730288 -101.3774924
lfemur  -11.12631321 -18.38526726 -18.68002319
ltibia  1.31822896 0.5403303504 16.75199127
lfoot  0.8904869556 -27.5608139 35.29550552
ltoes  -8.552365118 -18.14725805 -115.7731069
